/* XPM */
static char *north[] = {
"64 64 4 1",
". c #1E3A8A",
"X c #3B82F6",
"o c #60A5FA",
"O c #DBEAFE",
"................................................................",
"................................................................",
"XXXXXXXXXXXXXXXX............................XXXXXXXXXXXXXXXXXXXX",
"XXXXXXXXXXXXXXXX............................XXXXXXXXXXXXXXXXXXXX",
"XXooooooooooooXX............................XXooooooooooooooooXX",
"XXooooooooooooXX............................XXooooooooooooooooXX",
"XXooOOOOOOOOooXX............................XXooOOOOOOOOOOOOooXX",
"XXooOOOOOOOOooXX............................XXooOOOOOOOOOOOOooXX",
"XXooooooooooooXX............................XXooooooooooooooooXX",
"XXooooooooooooXX............................XXooooooooooooooooXX",
"XXXXXXXXXXXXXXXX............................XXXXXXXXXXXXXXXXXXXX",
"XXXXXXXXXXXXXXXX............................XXXXXXXXXXXXXXXXXXXX",
"................................................................",
"................................................................",
"................................................................",
"................................................................",
"XXXXXXXXXXXXXXXX............................XXXXXXXXXXXXXXXXXXXX",
"XXXXXXXXXXXXXXXX............................XXXXXXXXXXXXXXXXXXXX",
"XXooooooooooooXX............................XXooooooooooooooooXX",
"XXooooooooooooXX............................XXooooooooooooooooXX",
"XXooOOOOOOOOooXX............................XXooOOOOOOOOOOOOooXX",
"XXooOOOOOOOOooXX............................XXooOOOOOOOOOOOOooXX",
"XXooooooooooooXX............................XXooooooooooooooooXX",
"XXooooooooooooXX............................XXooooooooooooooooXX",
"XXXXXXXXXXXXXXXX............................XXXXXXXXXXXXXXXXXXXX",
"XXXXXXXXXXXXXXXX............................XXXXXXXXXXXXXXXXXXXX",
"................................................................",
"................................................................",
"................................................................",
"................................................................",
"XXXXXXXXXXXXXXXX............................XXXXXXXXXXXXXXXXXXXX",
"XXXXXXXXXXXXXXXX............................XXXXXXXXXXXXXXXXXXXX",
"XXooooooooooooXX............................XXooooooooooooooooXX",
"XXooooooooooooXX............................XXooooooooooooooooXX",
"XXooOOOOOOOOooXX............................XXooOOOOOOOOOOOOooXX",
"XXooOOOOOOOOooXX............................XXooOOOOOOOOOOOOooXX",
"XXooooooooooooXX............................XXooooooooooooooooXX",
"XXooooooooooooXX............................XXooooooooooooooooXX",
"XXXXXXXXXXXXXXXX............................XXXXXXXXXXXXXXXXXXXX",
"XXXXXXXXXXXXXXXX............................XXXXXXXXXXXXXXXXXXXX",
"................................................................",
"................................................................",
"................................................................",
"................................................................",
"XXXXXXXXXXXXXXXX............................XXXXXXXXXXXXXXXXXXXX",
"XXXXXXXXXXXXXXXX............................XXXXXXXXXXXXXXXXXXXX",
"XXooooooooooooXX............................XXooooooooooooooooXX",
"XXooooooooooooXX............................XXooooooooooooooooXX",
"XXooOOOOOOOOooXX............................XXooOOOOOOOOOOOOooXX",
"XXooOOOOOOOOooXX............................XXooOOOOOOOOOOOOooXX",
"XXooooooooooooXX............................XXooooooooooooooooXX",
"XXooooooooooooXX............................XXooooooooooooooooXX",
"XXXXXXXXXXXXXXXX............................XXXXXXXXXXXXXXXXXXXX",
"XXXXXXXXXXXXXXXX............................XXXXXXXXXXXXXXXXXXXX",
"................................................................",
"................................................................",
"................................................................",
"................................................................",
"XXXXXXXXXXXXXXXX............................XXXXXXXXXXXXXXXXXXXX",
"XXXXXXXXXXXXXXXX............................XXXXXXXXXXXXXXXXXXXX",
"XXooooooooooooXX............................XXooooooooooooooooXX",
"XXooooooooooooXX............................XXooooooooooooooooXX",
"XXooOOOOOOOOooXX............................XXooOOOOOOOOOOOOooXX",
"XXooOOOOOOOOooXX............................XXooOOOOOOOOOOOOooXX"
};
