/* XPM */
static char *north[] = {
"64 64 4 1",
". c #1E3A8A",
"X c #3B82F6",
"o c #60A5FA",
"O c #DBEAFE",
"................................................................",
"................................................................",
"..........XXXXXXXXXXXXXXXXXX........XXXXXXXXXXXXXXXXXX..........",
"..........XXXXXXXXXXXXXXXXXX........XXXXXXXXXXXXXXXXXX..........",
"..........XXooooooooooooooXX........XXooooooooooooooXX..........",
"..........XXooooooooooooooXX........XXooooooooooooooXX..........",
"..........XXooOOOOOOOOOOooXX........XXooOOOOOOOOOOooXX..........",
"..........XXooOOOOOOOOOOooXX........XXooOOOOOOOOOOooXX..........",
"..........XXooooooooooooooXX........XXooooooooooooooXX..........",
"..........XXooooooooooooooXX........XXooooooooooooooXX..........",
"..........XXXXXXXXXXXXXXXXXX........XXXXXXXXXXXXXXXXXX..........",
"..........XXXXXXXXXXXXXXXXXX........XXXXXXXXXXXXXXXXXX..........",
"................................................................",
"................................................................",
"................................................................",
"................................................................",
"..........XXXXXXXXXXXXXXXXXX........XXXXXXXXXXXXXXXXXX..........",
"..........XXXXXXXXXXXXXXXXXX........XXXXXXXXXXXXXXXXXX..........",
"..........XXooooooooooooooXX........XXooooooooooooooXX..........",
"..........XXooooooooooooooXX........XXooooooooooooooXX..........",
"..........XXooOOOOOOOOOOooXX........XXooOOOOOOOOOOooXX..........",
"..........XXooOOOOOOOOOOooXX........XXooOOOOOOOOOOooXX..........",
"..........XXooooooooooooooXX........XXooooooooooooooXX..........",
"..........XXooooooooooooooXX........XXooooooooooooooXX..........",
"..........XXXXXXXXXXXXXXXXXX........XXXXXXXXXXXXXXXXXX..........",
"..........XXXXXXXXXXXXXXXXXX........XXXXXXXXXXXXXXXXXX..........",
"................................................................",
"................................................................",
"................................................................",
"................................................................",
"..........XXXXXXXXXXXXXXXXXX........XXXXXXXXXXXXXXXXXX..........",
"..........XXXXXXXXXXXXXXXXXX........XXXXXXXXXXXXXXXXXX..........",
"..........XXooooooooooooooXX........XXooooooooooooooXX..........",
"..........XXooooooooooooooXX........XXooooooooooooooXX..........",
"..........XXooOOOOOOOOOOooXX........XXooOOOOOOOOOOooXX..........",
"..........XXooOOOOOOOOOOooXX........XXooOOOOOOOOOOooXX..........",
"..........XXooooooooooooooXX........XXooooooooooooooXX..........",
"..........XXooooooooooooooXX........XXooooooooooooooXX..........",
"..........XXXXXXXXXXXXXXXXXX........XXXXXXXXXXXXXXXXXX..........",
"..........XXXXXXXXXXXXXXXXXX........XXXXXXXXXXXXXXXXXX..........",
"................................................................",
"................................................................",
"................................................................",
"................................................................",
"..........XXXXXXXXXXXXXXXXXX........XXXXXXXXXXXXXXXXXX..........",
"..........XXXXXXXXXXXXXXXXXX........XXXXXXXXXXXXXXXXXX..........",
"..........XXooooooooooooooXX........XXooooooooooooooXX..........",
"..........XXooooooooooooooXX........XXooooooooooooooXX..........",
"..........XXooOOOOOOOOOOooXX........XXooOOOOOOOOOOooXX..........",
"..........XXooOOOOOOOOOOooXX........XXooOOOOOOOOOOooXX..........",
"..........XXooooooooooooooXX........XXooooooooooooooXX..........",
"..........XXooooooooooooooXX........XXooooooooooooooXX..........",
"..........XXXXXXXXXXXXXXXXXX........XXXXXXXXXXXXXXXXXX..........",
"..........XXXXXXXXXXXXXXXXXX........XXXXXXXXXXXXXXXXXX..........",
"................................................................",
"................................................................",
"................................................................",
"................................................................",
"..........XXXXXXXXXXXXXXXXXX........XXXXXXXXXXXXXXXXXX..........",
"..........XXXXXXXXXXXXXXXXXX........XXXXXXXXXXXXXXXXXX..........",
"..........XXooooooooooooooXX........XXooooooooooooooXX..........",
"..........XXooooooooooooooXX........XXooooooooooooooXX..........",
"..........XXooOOOOOOOOOOooXX........XXooOOOOOOOOOOooXX..........",
"..........XXooOOOOOOOOOOooXX........XXooOOOOOOOOOOooXX.........."
};
