/* XPM */
static char *south[] = {
"64 64 4 1",
". c #1E3A8A",
"X c #3B82F6",
"o c #60A5FA",
"O c #DBEAFE",
"................................................................",
"................................................................",
"XXXXXXXXooooooooXXXXXXXX............................XXXXXXXXXXXX",
"XXXXXXXXooooooooXXXXXXXX............................XXXXXXXXXXXX",
"XXooooooooOOOOooooooooXX............................XXoooooooooo",
"XXooooooooOOOOooooooooXX............................XXoooooooooo",
"XXooooooooooooooooooooXX............................XXooOOOOOOOO",
"XXooooooooooooooooooooXX............................XXooOOOOOOOO",
"XXooooooooooooooooooooXX............................XXoooooooooo",
"XXooooooooooooooooooooXX............................XXoooooooooo",
"XXXXXXXXXXXXXXXXXXXXXXXX............................XXXXXXXXXXXX",
"XXXXXXXXXXXXXXXXXXXXXXXX............................XXXXXXXXXXXX",
"................................................................",
"................................................................",
"................................................................",
"................................................................",
"XXXXXXXXXXXXXXXXXXXX............................XXXXXXXXXXXXXXXX",
"XXXXXXXXXXXXXXXXXXXX............................XXXXXXXXXXXXXXXX",
"XXooooooooooooooooXX............................XXooooooooooooXX",
"XXooooooooooooooooXX............................XXooooooooooooXX",
"XXooOOOOOOOOOOOOooXX............................XXooOOOOOOOOooXX",
"XXooOOOOOOOOOOOOooXX............................XXooOOOOOOOOooXX",
"XXooooooooooooooooXX............................XXooooooooooooXX",
"XXooooooooooooooooXX............................XXooooooooooooXX",
"XXXXXXXXXXXXXXXXXXXX............................XXXXXXXXXXXXXXXX",
"XXXXXXXXXXXXXXXXXXXX............................XXXXXXXXXXXXXXXX",
"................................................................",
"................................................................",
"................................................................",
"................................................................",
"XXXXXXXXXXXX............................XXXXXXXXooooooooXXXXXXXX",
"XXXXXXXXXXXX............................XXXXXXXXooooooooXXXXXXXX",
"XXoooooooooo............................XXooooooooOOOOooooooooXX",
"XXoooooooooo............................XXooooooooOOOOooooooooXX",
"XXooOOOOOOOO............................XXooooooooooooooooooooXX",
"XXooOOOOOOOO............................XXooooooooooooooooooooXX",
"XXoooooooooo............................XXooooooooooooooooooooXX",
"XXoooooooooo............................XXooooooooooooooooooooXX",
"XXXXXXXXXXXX............................XXXXXXXXXXXXXXXXXXXXXXXX",
"XXXXXXXXXXXX............................XXXXXXXXXXXXXXXXXXXXXXXX",
"................................................................",
"................................................................",
"................................................................",
"................................................................",
"XXXXXXXXXXXXXXXX............................XXXXXXXXXXXXXXXXXXXX",
"XXXXXXXXXXXXXXXX............................XXXXXXXXXXXXXXXXXXXX",
"XXooooooooooooXX............................XXooooooooooooooooXX",
"XXooooooooooooXX............................XXooooooooooooooooXX",
"XXooOOOOOOOOooXX............................XXooOOOOOOOOOOOOooXX",
"XXooOOOOOOOOooXX............................XXooOOOOOOOOOOOOooXX",
"XXooooooooooooXX............................XXooooooooooooooooXX",
"XXooooooooooooXX............................XXooooooooooooooooXX",
"XXXXXXXXXXXXXXXX............................XXXXXXXXXXXXXXXXXXXX",
"XXXXXXXXXXXXXXXX............................XXXXXXXXXXXXXXXXXXXX",
"................................................................",
"................................................................",
"................................................................",
"................................................................",
"XXXXXXXXooooooooXXXXXXXX............................XXXXXXXXXXXX",
"XXXXXXXXooooooooXXXXXXXX............................XXXXXXXXXXXX",
"XXooooooooOOOOooooooooXX............................XXoooooooooo",
"XXooooooooOOOOooooooooXX............................XXoooooooooo",
"XXooooooooooooooooooooXX............................XXooOOOOOOOO",
"XXooooooooooooooooooooXX............................XXooOOOOOOOO",
"XXooooooooooooooooooooXX............................XXoooooooooo",
"XXooooooooooooooooooooXX............................XXoooooooooo",
"XXXXXXXXXXXXXXXXXXXXXXXX............................XXXXXXXXXXXX",
"XXXXXXXXXXXXXXXXXXXXXXXX............................XXXXXXXXXXXX"
};
