/* XPM */
static char *west[] = {
"64 64 4 1",
". c #1E3A8A",
"X c #3B82F6",
"o c #60A5FA",
"O c #DBEAFE",
"................................................................",
"................................................................",
"XXXXXXXXXXXXXXXX......................XXXXXXXXXXXXXXXXXXXXXXXXXX",
"XXXXXXXXXXXXXXXX......................XXXXXXXXXXXXXXXXXXXXXXXXXX",
"XXooooooooooooXX......................XXooooooooooooooooooooooXX",
"XXooooooooooooXX......................XXooooooooooooooooooooooXX",
"XXooOOOOOOOOooXX......................XXooOOOOOOOOooooOOOOOOooXX",
"XXooOOOOOOOOooXX......................XXooOOOOOOOOooooOOOOOOooXX",
"XXooooooooooooXX......................XXooooooooooooooooooooooXX",
"XXooooooooooooXX......................XXooooooooooooooooooooooXX",
"XXXXXXXXXXXXXXXX......................XXXXXXXXXXXXXXXXXXXXXXXXXX",
"XXXXXXXXXXXXXXXX......................XXXXXXXXXXXXXXXXXXXXXXXXXX",
"................................................................",
"................................................................",
"................................................................",
"................................................................",
"XXXXXXXXXXXXXXXXXXXXXXXXXX....................XXXXXXXXXXXXXXXXXX",
"XXXXXXXXXXXXXXXXXXXXXXXXXX....................XXXXXXXXXXXXXXXXXX",
"XXooooooooooooooooooooooXX....................XXooooooooooooooXX",
"XXooooooooooooooooooooooXX....................XXooooooooooooooXX",
"XXooOOOOOOOOOOOOOOOOOOooXX....................XXooOOOOOOOOOOooXX",
"XXooOOOOOOOOOOOOOOOOOOooXX....................XXooOOOOOOOOOOooXX",
"XXooooooooooooooooooooooXX....................XXooooooooooooooXX",
"XXooooooooooooooooooooooXX....................XXooooooooooooooXX",
"XXXXXXXXXXXXXXXXXXXXXXXXXX....................XXXXXXXXXXXXXXXXXX",
"XXXXXXXXXXXXXXXXXXXXXXXXXX....................XXXXXXXXXXXXXXXXXX",
"................................................................",
"................................................................",
"................................................................",
"................................................................",
"XXXXXXXXXXXXXXXX......................XXXXXXXXXXXXXXXXXXXXXXXXXX",
"XXXXXXXXXXXXXXXX......................XXXXXXXXXXXXXXXXXXXXXXXXXX",
"XXooooooooooooXX......................XXooooooooooooooooooooooXX",
"XXooooooooooooXX......................XXooooooooooooooooooooooXX",
"XXooOOOOOOOOooXX......................XXooOOOOOOOOooooOOOOOOooXX",
"XXooOOOOOOOOooXX......................XXooOOOOOOOOooooOOOOOOooXX",
"XXooooooooooooXX......................XXooooooooooooooooooooooXX",
"XXooooooooooooXX......................XXooooooooooooooooooooooXX",
"XXXXXXXXXXXXXXXX......................XXXXXXXXXXXXXXXXXXXXXXXXXX",
"XXXXXXXXXXXXXXXX......................XXXXXXXXXXXXXXXXXXXXXXXXXX",
"................................................................",
"................................................................",
"................................................................",
"................................................................",
"XXXXXXXXXXXXXXXXXXXXXXXXXX....................XXXXXXXXXXXXXXXXXX",
"XXXXXXXXXXXXXXXXXXXXXXXXXX....................XXXXXXXXXXXXXXXXXX",
"XXooooooooooooooooooooooXX....................XXooooooooooooooXX",
"XXooooooooooooooooooooooXX....................XXooooooooooooooXX",
"XXooOOOOOOOOOOOOOOOOOOooXX....................XXooOOOOOOOOOOooXX",
"XXooOOOOOOOOOOOOOOOOOOooXX....................XXooOOOOOOOOOOooXX",
"XXooooooooooooooooooooooXX....................XXooooooooooooooXX",
"XXooooooooooooooooooooooXX....................XXooooooooooooooXX",
"XXXXXXXXXXXXXXXXXXXXXXXXXX....................XXXXXXXXXXXXXXXXXX",
"XXXXXXXXXXXXXXXXXXXXXXXXXX....................XXXXXXXXXXXXXXXXXX",
"................................................................",
"................................................................",
"................................................................",
"................................................................",
"XXXXXXXXXXXXXXXX......................XXXXXXXXXXXXXXXXXXXXXXXXXX",
"XXXXXXXXXXXXXXXX......................XXXXXXXXXXXXXXXXXXXXXXXXXX",
"XXooooooooooooXX......................XXooooooooooooooooooooooXX",
"XXooooooooooooXX......................XXooooooooooooooooooooooXX",
"XXooOOOOOOOOooXX......................XXooOOOOOOOOooooOOOOOOooXX",
"XXooOOOOOOOOooXX......................XXooOOOOOOOOooooOOOOOOooXX"
};
